<?xml version="1.0" encoding="utf-8"?>
<!-- Generator: Adobe Illustrator 16.0.0, SVG Export Plug-In . SVG Version: 6.00 Build 0)  -->
<!DOCTYPE svg PUBLIC "-//W3C//DTD SVG 1.1//EN" "http://www.w3.org/Graphics/SVG/1.1/DTD/svg11.dtd">
<svg version="1.1" id="Capa_1" xmlns="http://www.w3.org/2000/svg" xmlns:xlink="http://www.w3.org/1999/xlink" x="0px" y="0px"
	 width="512px" height="512px" viewBox="0 0 512 512" enable-background="new 0 0 512 512" xml:space="preserve">
<path fill="#7083A4" d="M439.67,64.548C392.982,21.516,334.91,0,265.557,0c-72.904,0-135.05,24.44-186.333,73.426
	S2.246,183.305,2.246,256.209c0,69.875,24.44,129.932,73.217,180.275C124.449,486.828,190.25,512,273.077,512
	c49.926,0,98.911-10.235,146.957-30.812c15.667-6.685,23.292-24.65,16.921-40.422l0,0c-6.58-16.293-25.172-23.813-41.361-16.92
	c-41.779,17.965-82.723,26.947-122.621,26.947c-63.504,0-112.698-19.322-147.584-58.073c-34.781-38.645-52.224-84.08-52.224-136.198
	c0-56.611,18.696-103.821,55.984-141.735c37.183-37.81,83.036-56.819,137.348-56.819c50.03,0,92.331,15.563,126.799,46.688
	c34.468,31.125,51.701,70.293,51.701,117.503c0,32.274-7.938,59.222-23.709,80.634c-15.772,21.516-32.17,32.169-49.195,32.169
	c-9.191,0-13.787-4.909-13.787-14.831c0-8.043,0.627-17.443,1.776-28.306l19.427-158.864h-66.847l-4.282,15.563
	c-17.024-13.892-35.721-20.89-55.983-20.89c-32.169,0-59.744,12.847-82.618,38.437c-22.979,25.59-34.363,58.595-34.363,98.912
	c0,39.377,10.131,71.232,30.499,95.36c20.368,24.231,44.808,36.243,73.427,36.243c25.589,0,47.419-10.758,65.593-32.17
	c13.683,20.576,33.841,30.813,60.475,30.813c39.168,0,73.009-17.025,101.522-51.18c28.515-34.05,42.823-75.201,42.823-123.352
	C509.754,159.7,486.463,107.581,439.67,64.548z M285.715,304.881c-11.803,15.877-25.902,23.919-42.301,23.919
	c-11.176,0-20.158-5.849-26.947-17.548c-6.894-11.697-10.34-26.216-10.34-43.658c0-21.516,4.805-38.854,14.414-52.015
	c9.609-13.161,21.516-19.845,35.721-19.845c12.325,0,23.292,4.909,32.901,14.832s14.413,23.083,14.413,39.585
	C303.472,270.727,297.518,288.9,285.715,304.881z"/>
</svg>
