<?xml version="1.0" encoding="utf-8"?>
<!-- Generator: Adobe Illustrator 16.0.0, SVG Export Plug-In . SVG Version: 6.00 Build 0)  -->
<!DOCTYPE svg PUBLIC "-//W3C//DTD SVG 1.1//EN" "http://www.w3.org/Graphics/SVG/1.1/DTD/svg11.dtd">
<svg version="1.1" id="Capa_1" xmlns="http://www.w3.org/2000/svg" xmlns:xlink="http://www.w3.org/1999/xlink" x="0px" y="0px"
	 width="512px" height="512px" viewBox="0 0 512 512" enable-background="new 0 0 512 512" xml:space="preserve">
<path fill="#22A7F0" d="M460.002,274.994c-20.001-23.334-49.662-39.552-89-48.665c27.567-12.667,44.233-21.222,50.01-25.664
	c14-10.445,24.555-22.115,31.654-35.001c7.112-12.892,10.664-27.113,10.664-42.667c0-14.443-2.329-27.998-6.999-40.666
	c-4.666-12.669-11.888-24.224-21.664-34.667c-10-10.441-21.334-18.89-34-25.335c-11.779-5.775-22.446-10.108-32.003-12.997
	c-22.886-6.001-44.109-9.001-63.662-9.001h-24.667c-4.444,0-8.95-0.056-13.505-0.168C262.279,0.059,259.891,0,259.669,0
	c-1.108,0-2.667,0.059-4.672,0.165c-2,0.112-3.56,0.168-4.669,0.168l-15.002,0.335L108.664,5L22,7.001l1.333,27.664
	c18.664,2.447,31.336,3.896,38,4.337c11.333,0.667,19,2.337,23.001,5c2.447,1.781,3.78,3.113,4.002,4.001
	c2.22,4.888,3.439,16.999,3.666,36.333c0.887,32.89,1.89,77.778,2.998,134.665l0.667,165.664c0,28.439-0.998,50.002-2.998,64.666
	c-0.889,5.334-3.225,11-7.001,17.001c-10.223,4.22-23.888,7.667-41,10.333c-5.107,0.663-12.665,1.997-22.664,4.004l-0.667,31.331
	c53.108-1.781,83.33-3,90.672-3.668c47.551-2.894,80.666-4.111,99.331-3.668l65.663,1.327c25.787,0.887,47.785-0.336,66.004-3.665
	c28.886-5.333,51.437-12.005,67.666-20.005c16.44-7.999,31.994-20.001,46.658-35.998c11.122-12.219,19.001-25.219,23.667-39.002
	c6.446-18.884,9.665-36.77,9.665-53.662C490.67,324.777,480.45,298.551,460.002,274.994z M199.008,38.675
	c17.333-2.889,31.777-4.333,43.332-4.333c37.998,0,66.337,8.334,85,25c18.877,16.663,28.327,37.443,28.327,62.33
	c0,35.335-9.886,60.223-29.662,74.667c-19.776,14.442-49.11,21.667-87.998,21.667c-14.666,0-26.776-0.776-36.33-2.332
	c-0.226-7.558-0.336-16.112-0.336-25.669l0.336-32.666c0.219-34.885-0.447-65.883-2.001-92.999
	C199.229,57.008,199.008,48.458,199.008,38.675z M365.675,423.662c-8.223,15.997-21.782,28.555-40.664,37.669
	c-18.892,9.114-42.895,13.664-72.001,13.664c-14.222,0-29.778-3.547-46.666-10.659c-2.667-6.441-4.001-11.339-4.006-14.671
	l-0.997-90.001l0.336-57.665v-48c6.001-2.222,17.224-3.331,33.667-3.331c37.111,0,64.553,3.556,82.331,10.665
	c18.443,7.117,34.112,21.116,47.002,42.005c9.109,14.671,13.664,34.668,13.664,60.003C378.336,388,374.112,408.108,365.675,423.662z
	"/>
</svg>
