<?xml version="1.0" encoding="UTF-8"?>
<svg width="16px" height="16px" viewBox="0 0 16 16" version="1.1" xmlns="http://www.w3.org/2000/svg" xmlns:xlink="http://www.w3.org/1999/xlink">
    <!-- Generator: Sketch 52.5 (67469) - http://www.bohemiancoding.com/sketch -->
    <title>icon/cloud-upload active</title>
    <desc>Created with Sketch.</desc>
    <g id="icon/cloud-upload-active" stroke="none" stroke-width="1" fill="none" fill-rule="evenodd">
        <g id="cloud-upload" transform="translate(1.000000, 4.000000)" stroke="#22A7F0" stroke-linecap="square">
            <path d="M3.15,8.4 C1.41030304,8.4 0,6.98969698 0,5.25 C0,3.51030302 1.41030304,2.1 3.15,2.1 C3.44363943,2.1 3.72789466,2.14017852 3.99756799,2.21533787 C4.705939,0.896623623 6.0982607,0 7.7,0 C9.78722514,0 11.5188449,1.52252726 11.8448366,3.51755887 C13.058915,3.66317595 14,4.69668689 14,5.95 C14,7.30309762 12.9030976,8.4 11.55,8.4 L3.15,8.4 Z" id="Path"></path>
            <path d="M7,3.5 L7,6.3" id="Path"></path>
            <polyline id="Path" points="5.6 4.2 7 2.8 8.4 4.2 8.4 4.2"></polyline>
        </g>
        <rect id="Rectangle" fill-rule="nonzero" x="0" y="0" width="16" height="16"></rect>
    </g>
</svg>