<?xml version="1.0" encoding="utf-8"?>
<!-- Generator: Adobe Illustrator 16.0.0, SVG Export Plug-In . SVG Version: 6.00 Build 0)  -->
<!DOCTYPE svg PUBLIC "-//W3C//DTD SVG 1.1//EN" "http://www.w3.org/Graphics/SVG/1.1/DTD/svg11.dtd">
<svg version="1.1" id="Layer_1" xmlns="http://www.w3.org/2000/svg" xmlns:xlink="http://www.w3.org/1999/xlink" x="0px" y="0px"
	 width="20px" height="20px" viewBox="0 0 20 20" enable-background="new 0 0 20 20" xml:space="preserve">
<circle id="Base" fill="#22A7F0" fill-opacity="0.5" stroke="#22A7F0" cx="10" cy="10" r="9.375"/>
<path id="Add-task-icon" fill="#FBFBFB" d="M10.782,9.219h2.347c0.43,0,0.775,0.347,0.775,0.781c0,0.432-0.354,0.782-0.775,0.782
	h-2.347v2.347c0,0.43-0.348,0.775-0.782,0.775c-0.432,0-0.781-0.354-0.781-0.775v-2.347H6.872c-0.43,0-0.778-0.348-0.778-0.782
	c0-0.432,0.356-0.781,0.778-0.781h2.347V6.872c0-0.43,0.347-0.778,0.781-0.778c0.432,0,0.782,0.356,0.782,0.778V9.219z"/>
</svg>
