<?xml version="1.0" encoding="utf-8"?>
<!-- Generator: Adobe Illustrator 16.0.0, SVG Export Plug-In . SVG Version: 6.00 Build 0)  -->
<!DOCTYPE svg PUBLIC "-//W3C//DTD SVG 1.1//EN" "http://www.w3.org/Graphics/SVG/1.1/DTD/svg11.dtd">
<svg version="1.1" id="Layer_1" xmlns="http://www.w3.org/2000/svg" xmlns:xlink="http://www.w3.org/1999/xlink" x="0px" y="0px"
	 width="16px" height="16px" viewBox="0 0 16 16" enable-background="new 0 0 16 16" xml:space="preserve">
<path id="Shape" fill="#E71D36" d="M12.363,12.115c2.296-2.297,2.296-6.02,0-8.315c-2.296-2.296-6.02-2.296-8.315,0
	c-2.296,2.296-2.296,6.019,0,8.315C6.344,14.411,10.067,14.411,12.363,12.115z M7.548,5.115c0.149-0.323,0.497-0.497,0.844-0.41
	c0.335,0.087,0.559,0.41,0.534,0.77C8.913,5.711,8.9,5.935,8.889,6.17c-0.051,0.869-0.1,1.738-0.137,2.594
	c-0.013,0.285-0.248,0.51-0.534,0.51c-0.298,0-0.521-0.225-0.534-0.534C7.672,8.565,7.672,8.392,7.66,8.218
	C7.622,7.66,7.598,7.101,7.56,6.53C7.535,6.17,7.523,5.81,7.498,5.45C7.486,5.351,7.498,5.227,7.548,5.115z M8.206,9.781
	c0.397,0,0.72,0.323,0.732,0.721c0,0.396-0.322,0.72-0.72,0.72c-0.385,0-0.72-0.323-0.72-0.708
	C7.486,10.117,7.809,9.781,8.206,9.781z"/>
</svg>
