<?xml version="1.0" encoding="UTF-8"?>
<svg width="16px" height="16px" viewBox="0 0 16 16" version="1.1" xmlns="http://www.w3.org/2000/svg" xmlns:xlink="http://www.w3.org/1999/xlink">
    <!-- Generator: Sketch 52.5 (67469) - http://www.bohemiancoding.com/sketch -->
    <title>icon/danger-med</title>
    <desc>Created with Sketch.</desc>
    <g id="icon/danger-med" stroke="none" stroke-width="1" fill="none" fill-rule="evenodd">
        <g id="Group" transform="translate(4.000000, 3.000000)"></g>
        <path d="M12.3632838,12.1150614 C14.6593407,9.81900452 14.6593407,6.09566904 12.3632838,3.79961215 C10.0672269,1.50355527 6.3438914,1.50355527 4.04783452,3.79961215 C1.75177763,6.09566904 1.75177763,9.81900452 4.04783452,12.1150614 C6.3438914,14.4111183 10.0672269,14.4111183 12.3632838,12.1150614 Z M7.54776988,5.11519069 C7.6967033,4.79250162 8.04421461,4.61874596 8.39172592,4.70562379 C8.72682612,4.79250162 8.95022624,5.11519069 8.92540401,5.47511312 C8.91299289,5.71092437 8.90058177,5.9343245 8.88817065,6.17013575 C8.83852618,7.03891403 8.78888171,7.90769231 8.75164835,8.76405947 C8.73923723,9.04951519 8.50342599,9.27291532 8.21797027,9.27291532 C7.92010343,9.27291532 7.6967033,9.04951519 7.68429218,8.73923723 C7.67188106,8.56548158 7.67188106,8.39172592 7.65946994,8.21797027 C7.62223659,7.65946994 7.59741435,7.10096962 7.560181,6.53005818 C7.53535876,6.17013575 7.52294764,5.81021332 7.4981254,5.45029089 C7.48571429,5.35100194 7.4981254,5.22689076 7.54776988,5.11519069 Z M8.20555915,9.78177117 C8.60271493,9.78177117 8.92540401,10.1044602 8.93781513,10.501616 C8.93781513,10.8987718 8.61512605,11.2214609 8.21797027,11.2214609 C7.8332256,11.2214609 7.4981254,10.8987718 7.4981254,10.5140271 C7.48571429,10.1168714 7.80840336,9.78177117 8.20555915,9.78177117 Z" id="Shape" fill="#FF7800" fill-rule="nonzero"></path>
        <rect id="Rectangle" fill-rule="nonzero" x="0" y="0" width="16" height="16"></rect>
    </g>
</svg>