<?xml version="1.0" encoding="UTF-8"?>
<svg width="16px" height="16px" viewBox="0 0 16 16" version="1.1" xmlns="http://www.w3.org/2000/svg" xmlns:xlink="http://www.w3.org/1999/xlink">
    <!-- Generator: Sketch 52.5 (67469) - http://www.bohemiancoding.com/sketch -->
    <title>icon/edit-white</title>
    <desc>Created with Sketch.</desc>
    <g id="icon/edit-white" stroke="none" stroke-width="1" fill="none" fill-rule="evenodd">
        <g id="new" opacity="0.8" transform="translate(2.000000, 1.000000)" stroke="#FBFBFB" stroke-linecap="round" stroke-linejoin="round">
            <path d="M10.4,7.8 L10.4,12.35 C10.4,12.7089851 10.1089851,13 9.75,13 L0.65,13 C0.291014912,13 0,12.7089851 0,12.35 L0,1.95 C0,1.59101491 0.291014912,1.3 0.65,1.3 L6.5,1.3" id="Path"></path>
            <path d="M11.8879888,0.675488814 L12.3245112,1.11201119 C12.8321927,1.61969276 12.8321927,2.44280724 12.3245112,2.95048881 L5.85,9.425 L3.575,9.425 L3.575,7.15 L10.0495112,0.675488814 C10.5571927,0.167807237 11.3803072,0.167807237 11.8879888,0.675488814 Z M9.2625,1.4625 L11.5375,3.7375 L9.2625,1.4625 Z" id="Shape"></path>
        </g>
        <rect id="Rectangle" fill-rule="nonzero" x="0" y="0" width="16" height="16"></rect>
    </g>
</svg>