<?xml version="1.0" encoding="utf-8"?>
<!-- Generator: Adobe Illustrator 16.0.0, SVG Export Plug-In . SVG Version: 6.00 Build 0)  -->
<!DOCTYPE svg PUBLIC "-//W3C//DTD SVG 1.1//EN" "http://www.w3.org/Graphics/SVG/1.1/DTD/svg11.dtd">
<svg version="1.1" id="Layer_1" xmlns="http://www.w3.org/2000/svg" xmlns:xlink="http://www.w3.org/1999/xlink" x="0px" y="0px"
	 width="16px" height="16px" viewBox="0 0 16 16" enable-background="new 0 0 16 16" xml:space="preserve">
<path id="Combined-Shape" fill="#22A7F0" d="M6,8c0-1.104,0.896-2,2-2s2,0.896,2,2s-0.896,2-2,2S6,9.104,6,8z M6,2
	c0-1.104,0.896-2,2-2s2,0.896,2,2S9.104,4,8,4S6,3.104,6,2z M6,14c0-1.104,0.896-2,2-2s2,0.896,2,2s-0.896,2-2,2S6,15.104,6,14z"/>
</svg>
