<?xml version="1.0" encoding="utf-8"?>
<!-- Generator: Adobe Illustrator 16.0.0, SVG Export Plug-In . SVG Version: 6.00 Build 0)  -->
<!DOCTYPE svg PUBLIC "-//W3C//DTD SVG 1.1//EN" "http://www.w3.org/Graphics/SVG/1.1/DTD/svg11.dtd">
<svg version="1.1" id="Capa_1" xmlns="http://www.w3.org/2000/svg" xmlns:xlink="http://www.w3.org/1999/xlink" x="0px" y="0px"
	 width="512px" height="512px" viewBox="0 0 512 512" enable-background="new 0 0 512 512" xml:space="preserve">
<path fill="#22A7F0" d="M414.664,0.835c-7.774,0.558-15.334,1.061-22.669,1.502c-32.89,1.995-56.671,2.998-71.334,2.998
	c-7.556,0-15.67-0.225-24.333-0.667L190.667,0l-6.334,34.334c2.22,0.441,6.444,0.89,12.667,1.334
	c22.886,1.329,38.887,4.443,47.999,9.332v12.667l-2.667,16.663l-7.332,45l-5.335,21.001l-9.667,52.332
	c0,0.225-0.39,1.504-1.167,3.837c-0.777,2.332-1.779,5.72-2.998,10.163c-1.225,4.447-2.61,9.615-4.169,15.502
	c-1.559,5.886-3.334,13.334-5.336,22.334c-2,8.998-3.89,18.39-5.666,28.166L196.659,294l-18.664,89.334l-9.001,46.323
	c-2.668,14.23-7.22,25.454-13.665,33.668c-8.889,4.448-21.778,8.779-38.667,13.007c-16.221,4.218-24.776,6.44-25.664,6.664
	l-5.666,28.339c5.33-0.444,16.218-1.442,32.665-3.004c29.555-2.666,48.888-3.889,57.997-3.665l66.001,0.663
	c27.996,2.893,44.104,4.778,48.324,5.673c4.223,0.663,7.336,0.998,9.333,0.998c4.003,0,8.666-0.223,13.999-0.667
	c1.11-0.219,3.669-0.331,7.667-0.331c0.444-2.221,1.442-6.781,3-13.673c1.327-6.444,2.105-12.888,2.333-19.336
	c-6.672-1.107-13.999-2.222-22.007-3.325c-12.214-1.335-25.442-3.672-39.666-7c-0.659-4.442-0.772-7.443-0.328-9.002l4.005-14.999
	l14.334-78.329l12.666-52.666l20.336-103.667c4.884-23.779,12.219-57.773,22.004-102c0.891-8.444,2.329-17.556,4.335-27.335
	c2.664-12.665,5.337-22.44,7.999-29.333c8.223-3.331,19.449-6.774,33.666-10.33c12.009-2.663,24.114-6.108,36.334-10.33
	c1.338-4.89,2.789-10.555,4.338-17c0.896-4.225,1.559-8.444,1.998-12.665C426.443,0.003,422.439,0.28,414.664,0.835z"/>
</svg>
