<?xml version="1.0" encoding="UTF-8"?>
<svg width="16px" height="16px" viewBox="0 0 16 16" version="1.1" xmlns="http://www.w3.org/2000/svg" xmlns:xlink="http://www.w3.org/1999/xlink">
    <!-- Generator: Sketch 52.5 (67469) - http://www.bohemiancoding.com/sketch -->
    <title>icon/laod active</title>
    <desc>Created with Sketch.</desc>
    <g id="icon/laod-active" stroke="none" stroke-width="1" fill="none" fill-rule="evenodd">
        <g id="rotate" transform="translate(1.000000, 2.000000)" stroke="#22A7F0">
            <polyline id="Path" stroke-linecap="square" points="14 5.6 11.9 7.7 9.8 5.6"></polyline>
            <polyline id="Path" stroke-linecap="square" points="0 5.6 2.1 3.5 4.2 5.6"></polyline>
            <path d="M11.9112001,7 L11.9112,5.635 C11.9115461,3.80644119 10.9007869,2.12757618 9.28460742,1.27224515 C7.66842789,0.41691412 5.71178129,0.525338355 4.2,1.554" id="Path" stroke-linecap="square"></path>
            <path d="M9.8112,9.6915 C8.29941871,10.7201616 6.34277211,10.8285859 4.72659258,9.97325485 C3.11041305,9.11792382 2.0996539,7.43905881 2.1,5.6105 L2.09999991,4.2" id="Path" stroke-linecap="square"></path>
            <path d="M2.1,4.2 L2.1,3.5" id="Path" stroke-linecap="round"></path>
            <path d="M11.9,7.7 L11.9,7" id="Path" stroke-linecap="round"></path>
        </g>
        <rect id="Rectangle" fill-rule="nonzero" x="0" y="0" width="16" height="16"></rect>
    </g>
</svg>