<?xml version="1.0" encoding="utf-8"?>
<!-- Generator: Adobe Illustrator 16.0.0, SVG Export Plug-In . SVG Version: 6.00 Build 0)  -->
<!DOCTYPE svg PUBLIC "-//W3C//DTD SVG 1.1//EN" "http://www.w3.org/Graphics/SVG/1.1/DTD/svg11.dtd">
<svg version="1.1" id="Layer_1" xmlns="http://www.w3.org/2000/svg" xmlns:xlink="http://www.w3.org/1999/xlink" x="0px" y="0px"
	 width="16px" height="16px" viewBox="0 0 16 16" enable-background="new 0 0 16 16" xml:space="preserve">
<path id="Mask" fill="#3A539B" d="M8,0L8,0c4.418,0,8,3.582,8,8l0,0c0,4.418-3.582,8-8,8l0,0c-4.418,0-8-3.582-8-8l0,0
	C0,3.582,3.582,0,8,0z"/>
<rect id="Rectangle_1_" x="8.351" y="6.185" fill="#FBFBFB" width="1" height="3.344"/>
<rect id="Rectangle_2_" x="4.984" y="6.19" fill="#FBFBFB" width="1" height="3.343"/>
<rect id="Rectangle_3_" x="6.667" y="6.19" fill="#FBFBFB" width="1" height="3.343"/>
<rect id="Rectangle_4_" x="10.033" y="6.19" fill="#FBFBFB" width="1" height="3.343"/>
<polygon id="Path" fill="#FBFBFB" points="7.976,4.068 4.002,5.629 11.951,5.629 "/>
<rect id="Rectangle_5_" x="4.539" y="9.965" fill="#FBFBFB" width="6.875" height="1"/>
<rect id="Rectangle_6_" x="4" y="10.666" fill="#FBFBFB" width="8" height="1"/>
</svg>
