<?xml version="1.0" encoding="utf-8"?>
<!-- Generator: Adobe Illustrator 16.0.0, SVG Export Plug-In . SVG Version: 6.00 Build 0)  -->
<!DOCTYPE svg PUBLIC "-//W3C//DTD SVG 1.1//EN" "http://www.w3.org/Graphics/SVG/1.1/DTD/svg11.dtd">
<svg version="1.1" id="Layer_1" xmlns="http://www.w3.org/2000/svg" xmlns:xlink="http://www.w3.org/1999/xlink" x="0px" y="0px"
	 width="16px" height="16px" viewBox="0 0 16 16" enable-background="new 0 0 16 16" xml:space="preserve">
<path id="Mask" fill="#F49D37" d="M8,0L8,0c4.418,0,8,3.582,8,8l0,0c0,4.418-3.582,8-8,8l0,0c-4.418,0-8-3.582-8-8l0,0
	C0,3.582,3.582,0,8,0z"/>
<path id="Shape" fill="#FBFBFB" d="M6.833,5.967C6.833,5.323,7.355,4.8,8,4.8s1.168,0.523,1.168,1.167
	c0,0.645-0.523,1.167-1.168,1.167c-0.31,0-0.606-0.123-0.826-0.342C6.956,6.574,6.833,6.277,6.833,5.967z M10.582,7.15
	c0.4,0,0.762-0.24,0.915-0.61s0.069-0.795-0.214-1.078C11,5.179,10.574,5.095,10.205,5.248c-0.37,0.153-0.61,0.514-0.61,0.915
	C9.596,6.425,9.7,6.676,9.886,6.862c0.187,0.185,0.438,0.289,0.7,0.288H10.582z M5.414,5.174c-0.545-0.001-0.988,0.44-0.99,0.986
	C4.422,6.706,4.863,7.149,5.409,7.151c0.546,0.002,0.99-0.438,0.993-0.984c0.001-0.263-0.102-0.516-0.288-0.702
	C5.929,5.279,5.677,5.174,5.414,5.174z M10.586,7.625C10.313,7.62,10.041,7.68,9.797,7.801c0.085,0.1,0.16,0.208,0.225,0.322
	c0.414,0.75,0.229,1.865,0.008,2.663h1.551c0,0,0.724-1.716,0.271-2.529C11.486,7.6,10.678,7.625,10.586,7.625z M5.414,7.625
	c-0.091,0-0.9-0.025-1.265,0.632C3.696,9.07,4.42,10.793,4.42,10.793h1.551C5.749,9.995,5.565,8.875,5.979,8.13
	c0.064-0.115,0.139-0.223,0.225-0.322C5.959,7.684,5.688,7.622,5.414,7.625z M8,7.575c-0.114,0-1.125-0.031-1.583,0.792
	c-0.448,0.805,0.025,2.316,0.241,2.914c0.057,0.15,0.201,0.25,0.362,0.25h1.96c0.16,0,0.305-0.1,0.361-0.25
	c0.217-0.598,0.689-2.113,0.242-2.914C9.125,7.542,8.114,7.575,8,7.575z"/>
</svg>
