<?xml version="1.0" encoding="utf-8"?>
<!-- Generator: Adobe Illustrator 16.0.0, SVG Export Plug-In . SVG Version: 6.00 Build 0)  -->
<!DOCTYPE svg PUBLIC "-//W3C//DTD SVG 1.1//EN" "http://www.w3.org/Graphics/SVG/1.1/DTD/svg11.dtd">
<svg version="1.1" id="Layer_1" xmlns="http://www.w3.org/2000/svg" xmlns:xlink="http://www.w3.org/1999/xlink" x="0px" y="0px"
	 width="16px" height="16px" viewBox="0 0 16 16" enable-background="new 0 0 16 16" xml:space="preserve">
<path id="Mask" fill="#20A39E" d="M8,0L8,0c4.418,0,8,3.582,8,8l0,0c0,4.418-3.582,8-8,8l0,0c-4.418,0-8-3.582-8-8l0,0
	C0,3.582,3.582,0,8,0z"/>
<path id="Path" fill="#FBFBFB" d="M7.766,4.815c1.216-0.134,2.066,0.64,1.954,1.961c-0.031,0.369-0.19,0.809-0.383,1.135
	c-0.182,0.309-0.591,0.608-0.483,1c0.068,0.248,0.64,0.395,0.846,0.481c0.527,0.221,1.266,0.55,1.451,1.076
	c0.047,0.136,0.083,0.466,0,0.674c-0.296,0.729-2.125,0.769-3.143,0.769c-0.563,0-1.247-0.009-1.853-0.115
	c-0.707-0.125-1.563-0.396-1.309-1.288C4.96,10.104,5.469,9.81,5.933,9.564c0.135-0.07,0.42-0.225,0.685-0.326
	c0.223-0.086,0.536-0.164,0.564-0.442C7.206,8.561,7.049,8.434,6.9,8.238C6.559,7.79,6.238,7.18,6.296,6.354
	C6.353,5.542,6.881,4.912,7.766,4.815z"/>
</svg>
