<?xml version="1.0" encoding="UTF-8"?>
<svg width="16px" height="16px" viewBox="0 0 16 16" version="1.1" xmlns="http://www.w3.org/2000/svg" xmlns:xlink="http://www.w3.org/1999/xlink">
    <!-- Generator: Sketch 52.5 (67469) - http://www.bohemiancoding.com/sketch -->
    <title>icon/loading</title>
    <desc>Created with Sketch.</desc>
    <g id="icon/loading" stroke="none" stroke-width="1" fill="none" fill-rule="evenodd">
        <path d="M9.80359656,2.00000086 C9.35561631,1.99954873 8.92582085,2.17715126 8.60883621,2.49370656 C8.29185157,2.81026185 8.11366667,3.2398162 8.11351162,3.68779666 C8.11305587,4.13617566 8.29097116,4.5663214 8.60802209,4.88337445 C8.92507302,5.20042751 9.35521756,5.37834569 9.80359656,5.37789295 C10.2515823,5.37774293 10.6811432,5.19955868 10.9977029,4.88257104 C11.3142626,4.56558341 11.4918664,4.13578216 11.4914113,3.68779666 C11.4910883,2.75577921 10.735614,2.00031341 9.80359656,2.00000086 Z M5.46259349,2.24538148 C5.11287851,2.2453687 4.7774834,2.38428728 4.53019828,2.63157382 C4.28291316,2.87886036 4.1439965,3.21425627 4.14401129,3.56397124 C4.14399851,3.9136849 4.28291606,4.24907887 4.53020096,4.49636377 C4.77748586,4.74364867 5.11287983,4.88256622 5.46259349,4.88255343 C5.81230387,4.8825612 6.14769298,4.74364144 6.39497378,4.49635708 C6.64225459,4.24907272 6.78116954,3.91368162 6.78115676,3.56397124 C6.78117155,3.21425955 6.64225749,2.8788665 6.39497646,2.63158051 C6.14769543,2.38429452 5.81230518,2.24537371 5.46259349,2.24538148 Z M2.52269513,5.01326897 C1.94589475,5.01412555 1.47887413,5.48217161 1.47928264,6.05897249 C1.4788804,6.63576894 1.94589918,7.10380808 2.52269513,7.10466466 C2.80009076,7.10486038 3.06618136,6.99475272 3.26233063,6.79860522 C3.4584799,6.60245773 3.56858997,6.33636813 3.56839676,6.05897249 C3.56859299,5.78157489 3.45848425,5.51548237 3.26233465,5.31933242 C3.06618506,5.12318247 2.80009273,5.01307325 2.52269513,5.01326897 Z M12.9521661,5.29762929 C12.409031,5.2975784 11.8881264,5.51331347 11.5040693,5.89736527 C11.1200121,6.28141707 10.9042699,6.80231873 10.9043132,7.34545376 C10.9042689,7.88858944 11.1200107,8.40949207 11.5040679,8.79354469 C11.8881252,9.17759731 12.4090304,9.3933329 12.9521661,9.39328201 C13.4952985,9.39332788 14.0161988,9.17759008 14.400252,8.793538 C14.7843051,8.40948593 15.0000444,7.88858616 15,7.34545376 C15.0000434,6.80232201 14.7843037,6.28142322 14.4002506,5.89737196 C14.0161976,5.51332071 13.4952978,5.29758342 12.9521661,5.29762929 Z M1.8232968,8.35216434 C1.60483673,8.35178835 1.39521547,8.43840224 1.2407371,8.59287351 C1.08625872,8.74734479 0.999635204,8.95696206 1.00000115,9.17542215 C1.00024423,9.39348498 1.08713655,9.60251265 1.24154877,9.75648772 C1.39596099,9.9104628 1.60523415,9.99676217 1.8232968,9.99638703 C2.27648769,9.99587312 2.64374099,9.62861305 2.64424655,9.17542215 C2.64461163,8.95736867 2.5583099,8.74810752 2.40433919,8.59370393 C2.25036847,8.43930033 2.04135044,8.35241144 1.8232968,8.35216434 Z M2.82312104,11.4090037 C2.40682002,11.4099175 2.06956787,11.7471671 2.06865093,12.1634681 C2.06830576,12.5806635 2.40592647,12.9193069 2.82312104,12.9202236 C3.0238732,12.9203852 3.2164493,12.8407073 3.35840114,12.6987526 C3.50035297,12.556798 3.58002705,12.3642203 3.57986138,12.1634681 C3.57894162,11.7462817 3.24030837,11.4086668 2.82312104,11.4090037 Z M5.16218649,13.4499494 C5.00518157,13.449658 4.85452274,13.5118963 4.74349976,13.6229122 C4.63247678,13.7339281 4.57022877,13.8845829 4.57051014,14.0415879 C4.57118454,14.3677074 4.83606684,14.6315522 5.16218649,14.6309467 C5.48739038,14.6302587 5.75084461,14.3667918 5.75151694,14.0415879 C5.75210151,13.7154941 5.48828011,13.4506394 5.16218649,13.4499494 Z M7.51958397,14.0645304 C7.41709533,14.0648026 7.31891591,14.1057929 7.24665969,14.1784774 C7.17440347,14.2511619 7.13399405,14.3495819 7.13432747,14.4520703 C7.13489035,14.6646086 7.30704566,14.8367656 7.51958397,14.8373306 C7.62207408,14.8376655 7.72049604,14.7972563 7.79318187,14.7249991 C7.8658677,14.6527419 7.90685837,14.5545606 7.90712962,14.4520703 C7.90746451,14.349185 7.8667413,14.2504172 7.7939895,14.1776665 C7.72123771,14.1049157 7.62246924,14.064194 7.51958397,14.0645304 Z" id="Shape" fill="#7083A4" fill-rule="nonzero"></path>
        <rect id="Rectangle" fill-rule="nonzero" x="0" y="0" width="16" height="16"></rect>
    </g>
</svg>