<?xml version="1.0" encoding="utf-8"?>
<!-- Generator: Adobe Illustrator 16.0.0, SVG Export Plug-In . SVG Version: 6.00 Build 0)  -->
<!DOCTYPE svg PUBLIC "-//W3C//DTD SVG 1.1//EN" "http://www.w3.org/Graphics/SVG/1.1/DTD/svg11.dtd">
<svg version="1.1" id="Layer_1" xmlns="http://www.w3.org/2000/svg" xmlns:xlink="http://www.w3.org/1999/xlink" x="0px" y="0px"
	 width="16px" height="16px" viewBox="0 0 16 16" enable-background="new 0 0 16 16" xml:space="preserve">
<path id="Info-Icon" fill="#C5D0DE" d="M9.416,11.506H6.583c-0.187,0-0.337-0.176-0.337-0.393s0.15-0.393,0.337-0.393l0.542-0.096V8
	L6.583,7.898c-0.187,0-0.337-0.176-0.337-0.392c0-0.216,0.15-0.392,0.337-0.392h2.2c0.067,0,0.089-0.028,0.099-0.05
	C8.879,7.077,8.875,7.089,8.875,7.125v3.5l0.541,0.096c0.188,0,0.338,0.176,0.338,0.393S9.604,11.506,9.416,11.506L9.416,11.506z
	 M7.125,4.5h0.857C7.989,4.5,7.994,4.497,8,4.497S8.011,4.5,8.018,4.5h0.857v0.822c0.001,0.02,0.011,0.035,0.011,0.054
	c0,0.019-0.01,0.035-0.011,0.053V6.25H8.029C8.019,6.251,8.01,6.256,8,6.256c-0.011,0-0.019-0.005-0.029-0.006H7.125V5.428
	C7.123,5.41,7.114,5.395,7.114,5.376c0-0.019,0.009-0.034,0.011-0.053V4.5z M8,1C4.133,1,1,4.134,1,8c0,3.865,3.133,7,7,7
	c3.865,0,7-3.135,7-7C15,4.134,11.865,1,8,1L8,1z"/>
</svg>
