<?xml version="1.0" encoding="utf-8"?>
<!-- Generator: Adobe Illustrator 16.0.0, SVG Export Plug-In . SVG Version: 6.00 Build 0)  -->
<!DOCTYPE svg PUBLIC "-//W3C//DTD SVG 1.1//EN" "http://www.w3.org/Graphics/SVG/1.1/DTD/svg11.dtd">
<svg version="1.1" id="Layer_1" xmlns="http://www.w3.org/2000/svg" xmlns:xlink="http://www.w3.org/1999/xlink" x="0px" y="0px"
	 width="19px" height="16px" viewBox="0 0 19 16" enable-background="new 0 0 19 16" xml:space="preserve">
<path id="Shape" fill="#22A7F0" d="M5.255,13.08c-0.563,0-0.983-0.326-1.377-0.727c-0.394-0.4-0.766-0.924-1.094-1.492
	C2.129,9.725,1.626,8.438,1.626,7.439c0-0.609,0-1.219,0-1.828c0-1.38,1.137-2.531,2.592-2.531h1.815
	c1.456,0,2.593,1.151,2.593,2.531v1.727c0,1.38-1.148,2.492-2.593,2.492H5.102c0.163,0.867,0.373,1.7,0.648,2.617
	C5.833,12.74,5.571,13.076,5.255,13.08z M13.256,13.08c-0.564,0-0.984-0.326-1.378-0.727s-0.767-0.924-1.094-1.492
	c-0.655-1.137-1.158-2.423-1.158-3.422c0-0.609,0-1.219,0-1.828c0-1.38,1.138-2.531,2.593-2.531h1.814
	c1.455,0,2.593,1.151,2.593,2.531v1.727c0,1.38-1.148,2.492-2.593,2.492h-0.932c0.163,0.867,0.373,1.7,0.648,2.617
	C13.834,12.74,13.571,13.076,13.256,13.08z"/>
</svg>
