<?xml version="1.0" encoding="UTF-8"?>
<svg width="16px" height="16px" viewBox="0 0 16 16" version="1.1" xmlns="http://www.w3.org/2000/svg" xmlns:xlink="http://www.w3.org/1999/xlink">
    <!-- Generator: Sketch 52.5 (67469) - http://www.bohemiancoding.com/sketch -->
    <title>icon/settings-off</title>
    <desc>Created with Sketch.</desc>
    <g id="icon/settings-off" stroke="none" stroke-width="1" fill="none" fill-rule="evenodd">
        <g id="settings" opacity="0.8" transform="translate(2.000000, 2.000000)" fill="#FBFBFB" stroke="#FBFBFB" stroke-linecap="round" stroke-linejoin="round">
            <path d="M1.35670953,6.4700226 C1.34124989,6.3154464 1.33333333,6.15864773 1.33333333,6 C1.33333333,5.84135227 1.34124989,5.6845536 1.35670953,5.5299774 L0.137180913,4.15470054 L1.47051425,1.84529946 L3.2713142,2.21380603 C3.52486082,2.03075613 3.79752865,1.87254808 4.08575022,1.74274935 L4.66666667,0 L7.33333333,0 L7.9142498,1.74274935 C8.20247133,1.87254808 8.4751392,2.03075613 8.7286858,2.21380603 L10.5294857,1.84529946 L11.8628191,4.15470054 L10.6432905,5.5299774 C10.6587501,5.6845536 10.6666667,5.84135227 10.6666667,6 C10.6666667,6.15864773 10.6587501,6.3154464 10.6432905,6.4700226 L11.8628191,7.84529947 L10.5294857,10.1547005 L8.7286858,9.786194 C8.4751392,9.96924387 8.20247133,10.1274519 7.9142498,10.2572507 L7.33333333,12 L4.66666667,12 L4.08575022,10.2572507 C3.79752865,10.1274519 3.52486082,9.96924387 3.2713142,9.786194 L1.47051425,10.1547005 L0.137180913,7.84529947 L1.35670953,6.4700226 Z M6.13718091,9 C7.79403516,9 9.13718091,7.65685425 9.13718091,6 C9.13718091,4.34314575 7.79403516,3 6.13718091,3 C4.48032666,3 3.13718091,4.34314575 3.13718091,6 C3.13718091,7.65685425 4.48032666,9 6.13718091,9 Z" id="Combined-Shape"></path>
        </g>
        <rect id="Rectangle" fill-rule="nonzero" x="0" y="0" width="16" height="16"></rect>
    </g>
</svg>