<?xml version="1.0" encoding="utf-8"?>
<!-- Generator: Adobe Illustrator 16.0.0, SVG Export Plug-In . SVG Version: 6.00 Build 0)  -->
<!DOCTYPE svg PUBLIC "-//W3C//DTD SVG 1.1//EN" "http://www.w3.org/Graphics/SVG/1.1/DTD/svg11.dtd">
<svg version="1.1" id="Capa_1" xmlns="http://www.w3.org/2000/svg" xmlns:xlink="http://www.w3.org/1999/xlink" x="0px" y="0px"
	 width="512px" height="512px" viewBox="0 0 512 512" enable-background="new 0 0 512 512" xml:space="preserve">
<path fill="#22A7F0" d="M16.002,31.675c27.113,0.668,43.445,5.004,48.997,12.985c3.775,5.562,5.667,29.224,5.667,70.999v111.001
	c0,34.892,1.774,61.222,5.33,79.001c4.894,26.441,14.115,48.112,27.67,64.996c13.328,16.669,33.221,30.23,59.663,40.669
	c26,10.221,57.556,15.331,94.664,15.331c32.441,0,60.777-3.66,85.006-10.994c23.771-7.113,43.997-17.006,60.657-29.67
	c16.454-12.887,28.895-26.555,37.334-41c5.776-10.221,10.339-23.781,13.672-40.658c4.667-24.219,6.338-58.009,5.002-101.339
	c-3.108-83.781-5.554-127.778-7.336-132.001c0-2.441-0.168-5.886-0.494-10.33c-0.337-4.447-0.505-7.441-0.505-8.999
	c0-5.778,1.671-10.337,5.003-13.667c1.342-1.333,10.111-3.225,26.333-5.669c8.671-0.222,18.008-1.671,28.004-4.333
	c0.896-5.332,1.331-8.776,1.331-10.335c0-2.888-0.659-8.557-1.994-16.997L504.003,0c-26.67,2.89-48.444,3.998-65.337,3.332
	L370.338,0h-27.999l-0.672,28.669l4.67,0.997l33.335-0.665c9.549-0.222,18.106,3.557,25.661,11.336
	c4.219,4.667,6.893,14.44,7.999,29.33l1.327,19.671c1.342,19.11,2.837,36.829,4.507,53.16c1.671,16.333,2.894,29.945,3.668,40.831
	c0.775,10.892,1.167,25.113,1.167,42.668c0,34.668-2.334,60.104-7.001,76.324c-3.771,12.889-9.668,25.563-17.659,38.005
	c-3.787,6.224-11.008,13.333-21.679,21.339c-9.549,7.326-20.544,12.992-32.993,16.992c-19.338,6.225-40.557,9.333-63.663,9.333
	c-19.784,0-39.441-5.219-59-15.67c-13.555-7.327-24.22-17.548-31.998-30.661c-9.998-17.328-15.666-39.781-17-67.338l-4.667-93.328
	l-0.34-76.324c0-1.329-0.057-4.163-0.168-8.496c-0.112-4.333-0.168-7.937-0.168-10.83c0-26.221,1.444-40.885,4.332-43.997
	c4.228-5.558,13.002-8.335,26.335-8.335c14.226,0,28.001-0.998,41.334-2.998v-3l-0.665-21.332l0.33-4.669
	c-6.664,0.444-16.218,0.668-28.663,0.668c-6.664,0.222-22.889,0.778-48.667,1.666c-18.227,0.668-36.892,0.997-56.001,0.997
	c-7.557,0-26-0.773-55.333-2.332c-11.555-0.887-24-1.33-37.333-1.33c-6.001,0-10.446,0.107-13.332,0.332l1,29.334
	C2.779,30.788,7.779,31.234,16.002,31.675z"/>
<path fill="#22A7F0" d="M501.325,469.337H10.671c-3.11,0-5.667,0.998-7.667,3.001c-2.002,2.002-2.998,4.554-2.998,7.667v21.331
	c0,3.112,1,5.67,2.998,7.667c2,2.002,4.552,2.996,7.667,2.996h490.654c3.116,0,5.673-0.995,7.671-2.996
	c1.997-1.997,2.992-4.555,2.992-7.667v-21.331c0-3.113-0.996-5.666-2.992-7.667S504.441,469.337,501.325,469.337z"/>
</svg>
