<?xml version="1.0" encoding="UTF-8"?>
<svg width="16px" height="16px" viewBox="0 0 16 16" version="1.1" xmlns="http://www.w3.org/2000/svg" xmlns:xlink="http://www.w3.org/1999/xlink">
    <!-- Generator: Sketch 52.5 (67469) - http://www.bohemiancoding.com/sketch -->
    <title>icon/view mode</title>
    <desc>Created with Sketch.</desc>
    <g id="icon/view-mode" stroke="none" stroke-width="1" fill="none" fill-rule="evenodd">
        <path d="M12.375,1 L3.625,1 C2.1375,1 1,2.1375 1,3.625 L1,12.375 C1,13.8625 2.1375,15 3.625,15 L12.375,15 C13.8625,15 15,13.8625 15,12.375 L15,3.625 C15,2.1375 13.8625,1 12.375,1 Z M14.125,3.625 L14.125,9.75 L8.4375,9.75 L8.4375,1.875 L12.375,1.875 C13.3375,1.875 14.125,2.6625 14.125,3.625 Z M3.625,1.875 L7.5625,1.875 L7.5625,5.375 L1.875,5.375 L1.875,3.625 C1.875,2.6625 2.6625,1.875 3.625,1.875 Z M1.875,12.375 L1.875,6.25 L7.5625,6.25 L7.5625,14.125 L3.625,14.125 C2.6625,14.125 1.875,13.3375 1.875,12.375 Z M12.375,14.125 L8.4375,14.125 L8.4375,10.625 L14.125,10.625 L14.125,12.375 C14.125,13.3375 13.3375,14.125 12.375,14.125 Z" id="Shape" fill="#7083A4" fill-rule="nonzero"></path>
        <rect id="Rectangle" fill-rule="nonzero" x="0" y="0" width="16" height="16"></rect>
    </g>
</svg>